<?xml version="1.0" encoding="utf-8"?>
<!-- Generator: Adobe Illustrator 27.5.0, SVG Export Plug-In . SVG Version: 6.00 Build 0)  -->
<svg version="1.1" xmlns="http://www.w3.org/2000/svg" xmlns:xlink="http://www.w3.org/1999/xlink" x="0px" y="0px"
	 viewBox="0 0 750 500" style="enable-background:new 0 0 750 500;" xml:space="preserve">
<g id="BACKGROUND">
	<linearGradient id="SVGID_1_" gradientUnits="userSpaceOnUse" x1="375" y1="500" x2="375" y2="-9.094947e-13">
		<stop  offset="0.0053" style="stop-color:#EEDFFF"/>
		<stop  offset="1" style="stop-color:#C7D4FF"/>
	</linearGradient>
	<rect style="opacity:0.8;fill:url(#SVGID_1_);" width="750" height="500"/>
</g>
<g id="OBJECTS">
	<g>
		<g>
			<polygon style="opacity:0.35;fill:#ADC4FE;" points="69.082,207.508 69.082,169.878 59.614,169.878 45.588,90.049 
				31.561,169.878 22.093,169.878 22.093,207.508 15.272,207.508 15.272,500 75.904,500 75.904,207.508 			"/>
			<polygon style="opacity:0.57;fill:#ADC4FE;" points="581.491,140.185 581.491,89.855 564.459,89.855 564.459,15.379 
				550.514,15.379 550.514,89.855 550.514,497.722 581.491,497.722 581.491,497.799 596.979,497.799 596.979,140.185 			"/>
			<polygon style="opacity:0.57;fill:#ADC4FE;" points="92.726,270.878 92.726,238.631 111.224,238.631 111.224,190.915 
				126.371,190.915 126.371,238.631 126.371,499.951 92.726,499.951 92.726,500 75.904,500 75.904,270.878 			"/>
			<polygon style="opacity:0.35;fill:#ADC4FE;" points="673.26,108.27 673.26,500 607.36,500 607.36,116.48 			"/>
			<path style="opacity:0.35;fill:#ADC4FE;" d="M181.21,108.27v165.36c0.01,0,0,0.01,0,0.01V500h-43.28V126.48L181.21,108.27z"/>
			<polygon style="opacity:0.56;fill:#ADC4FE;" points="402.09,51 402.09,499.91 369.92,499.91 369.92,500 353.83,500 
				353.83,159.89 369.92,159.89 369.92,51 			"/>
			<polygon style="opacity:0.35;fill:#ADC4FE;" points="279.55,90.11 279.55,500 228.12,500 228.12,90.11 228.23,90.11 
				234.76,76.94 253.83,38.44 279.44,90.11 			"/>
			<polygon style="opacity:0.35;fill:#ADC4FE;" points="481.48,91.67 481.48,500 431.77,500 431.77,91.67 445.12,91.67 
				445.12,77.34 468.12,77.34 468.12,91.67 			"/>
			<polygon style="opacity:0.5;fill:#ADC4FE;" points="734.609,231.764 707.065,190.915 679.521,231.764 679.402,231.764 
				679.402,500 734.728,500 734.728,231.764 			"/>
			<polygon style="opacity:0.35;fill:#ADC4FE;" points="323.95,186.32 323.95,500 281.95,500 281.95,186.32 288.65,186.32 
				302.8,99.51 315.53,177.61 316.95,186.32 			"/>
		</g>
		<g>
			<g>
				<polygon style="fill:#B6BAFE;" points="595.93,196.75 595.93,500 553.88,500 553.88,196.75 562.37,196.75 562.37,186.36 
					570.48,186.36 570.48,167.67 587.41,167.67 587.41,186.36 587.45,186.36 587.45,196.75 				"/>
				<polygon style="fill:#BCC5FF;" points="609.53,196.75 609.53,500 567.48,500 567.48,196.75 575.96,196.75 575.96,186.36 
					584.08,186.36 584.08,167.67 592.93,167.67 592.93,186.36 601.05,186.36 601.05,196.75 				"/>
				<g>
					<g>
						<g>
							<rect x="597.99" y="206.33" style="fill:#B6BAFE;" width="4.48" height="293.67"/>
						</g>
						<g>
							<rect x="588.44" y="196.83" style="fill:#B6BAFE;" width="4.48" height="303.17"/>
						</g>
						<g>
							<rect x="578.89" y="206.33" style="fill:#B6BAFE;" width="4.48" height="293.67"/>
						</g>
					</g>
				</g>
			</g>
			<g>
				<polygon style="fill:#BCC5FF;" points="212.328,84.447 212.328,76.984 233.626,76.984 233.626,84.447 240.134,84.447 
					240.134,500 201.56,500 201.56,84.447 				"/>
				<g>
					<g>
						<g>
							<rect x="229.673" y="91.169" style="fill:#B6BAFE;" width="5.415" height="408.831"/>
						</g>
						<g>
							<rect x="218.14" y="91.169" style="fill:#B6BAFE;" width="5.415" height="408.831"/>
						</g>
						<g>
							<rect x="206.606" y="91.169" style="fill:#B6BAFE;" width="5.415" height="408.831"/>
						</g>
					</g>
				</g>
				<polygon style="fill:#B6BAFE;" points="254.947,76.984 254.947,84.424 257.23,84.424 257.23,500 240.134,500 240.134,84.424 
					233.626,84.424 233.626,76.984 				"/>
			</g>
			<g>
				<rect x="325.34" y="113.15" style="fill:#BCC5FF;" width="36.25" height="386.85"/>
				<polygon style="fill:#B6BAFE;" points="325.34,113.15 325.34,500 315.53,500 315.53,118.14 				"/>
				<g>
					<g>
						<g>
							<rect x="331.68" y="135.4" style="fill:#B6BAFE;" width="4.47" height="364.6"/>
						</g>
						<g>
							<rect x="341.22" y="122.71" style="fill:#B6BAFE;" width="4.48" height="377.29"/>
						</g>
						<g>
							<rect x="350.77" y="135.4" style="fill:#B6BAFE;" width="4.48" height="364.6"/>
						</g>
					</g>
				</g>
			</g>
		</g>
		
			<line style="fill:none;stroke:#ADC4FE;stroke-width:0.7834;stroke-miterlimit:10;" x1="547.501" y1="294.208" x2="547.501" y2="294.186"/>
		<g>
			<g>
				<polygon style="fill:#A5B2FF;" points="161.143,312.06 161.143,500 116.58,500 116.58,315.61 124.354,314.99 133.449,314.27 
					143.302,313.48 				"/>
				<polygon style="fill:#A5B2FF;" points="124.353,288.941 124.353,314.993 161.145,312.06 161.145,283.809 136.651,287.227 				
					"/>
				<polygon style="opacity:0.6;fill:#BCC5FF;" points="155.165,305.505 155.165,291.709 130.333,295.172 130.333,307.485 				"/>
				<polygon style="fill:#989DFD;" points="205.705,314.43 205.705,500 161.143,500 161.143,312.06 180.193,313.07 180.492,313.09 
					184.796,313.31 189.408,313.56 194.624,313.83 197.949,314.01 199.236,314.08 204.452,314.36 				"/>
				<g style="opacity:0.6;">
					<g>
						<polygon style="fill:#BCC5FF;" points="155.893,318.076 155.893,322.476 121.833,324.721 121.833,320.321 						"/>
						<polygon style="fill:#BCC5FF;" points="155.893,325.272 155.893,329.572 121.833,331.817 121.833,327.517 						"/>
						<polygon style="fill:#BCC5FF;" points="155.893,332.478 155.893,336.677 121.833,338.922 121.833,334.723 						"/>
						<polygon style="fill:#BCC5FF;" points="155.893,339.674 155.893,343.773 121.833,346.018 121.833,341.919 						"/>
						<polygon style="fill:#BCC5FF;" points="155.893,346.87 155.893,350.869 121.833,353.114 121.833,349.115 						"/>
						<polygon style="fill:#BCC5FF;" points="155.893,354.066 155.893,357.974 121.833,360.21 121.833,356.311 						"/>
						<polygon style="fill:#BCC5FF;" points="155.893,361.272 155.893,365.07 121.833,367.315 121.833,363.517 						"/>
						<polygon style="fill:#BCC5FF;" points="155.893,368.468 155.893,372.166 121.833,374.411 121.833,370.713 						"/>
						<polygon style="fill:#BCC5FF;" points="155.893,375.664 155.893,379.262 121.833,381.507 121.833,377.909 						"/>
						<polygon style="fill:#BCC5FF;" points="155.893,382.86 155.893,386.367 121.833,388.612 121.833,385.104 						"/>
						<polygon style="fill:#BCC5FF;" points="155.893,390.065 155.893,393.463 121.833,395.708 121.833,392.31 						"/>
						<polygon style="fill:#BCC5FF;" points="155.893,397.261 155.893,400.559 121.833,402.804 121.833,399.506 						"/>
						<polygon style="fill:#BCC5FF;" points="155.893,404.457 155.893,407.664 121.833,409.909 121.833,406.702 						"/>
						<polygon style="fill:#BCC5FF;" points="155.893,411.663 155.893,414.76 121.833,417.005 121.833,413.898 						"/>
						<polygon style="fill:#BCC5FF;" points="155.893,418.859 155.893,421.856 121.833,424.101 121.833,421.104 						"/>
						<polygon style="fill:#BCC5FF;" points="155.893,426.055 155.893,428.962 121.833,431.207 121.833,428.3 						"/>
						<polygon style="fill:#BCC5FF;" points="155.893,433.251 155.893,436.057 121.833,438.302 121.833,435.496 						"/>
						<polygon style="fill:#BCC5FF;" points="155.893,440.457 155.893,443.153 121.833,445.398 121.833,442.702 						"/>
						<polygon style="fill:#BCC5FF;" points="155.893,447.653 155.893,450.259 121.833,452.504 121.833,449.898 						"/>
						<polygon style="fill:#BCC5FF;" points="155.893,454.849 155.893,457.354 121.833,459.599 121.833,457.094 						"/>
						<polygon style="fill:#BCC5FF;" points="155.893,462.045 155.893,464.45 121.833,466.695 121.833,464.29 						"/>
						<polygon style="fill:#BCC5FF;" points="155.893,469.251 155.893,471.556 121.833,473.791 121.833,471.496 						"/>
						<polygon style="fill:#BCC5FF;" points="155.893,476.447 155.893,478.651 121.833,480.897 121.833,478.692 						"/>
						<polygon style="fill:#BCC5FF;" points="155.893,483.642 155.893,485.747 121.833,487.992 121.833,485.888 						"/>
						<polygon style="fill:#BCC5FF;" points="155.893,490.838 155.893,492.843 121.833,495.088 121.833,493.083 						"/>
					</g>
				</g>
				<polygon style="fill:#989DFD;" points="161.145,283.809 161.145,312.06 197.946,314.011 197.946,287.759 185.508,286.422 				
					"/>
				<g>
					<path style="fill:#848FF4;" d="M136.651,287.227l24.494-3.095l24.363,2.367c-2.359-11.996-12.368-21.014-24.363-21.014
						C148.908,265.484,138.737,274.867,136.651,287.227z"/>
					<path style="fill:#7986F7;" d="M154.423,266.459c8.466,2.514,15.104,9.667,17.35,18.708l13.737,1.334
						c-2.358-12-12.37-21.014-24.364-21.014C158.814,265.488,156.559,265.824,154.423,266.459z"/>
				</g>
			</g>
			<g>
				<polygon style="fill:#A5B2FF;" points="459.91,214.53 459.91,500 390.84,500 390.84,211.37 393.92,211.51 393.93,211.51 
					402.09,211.89 431.77,213.25 452.16,214.19 452.17,214.19 				"/>
				<polygon style="fill:#848FF4;" points="446.018,180.082 446.018,187.146 395.395,183.354 395.395,174.63 407.353,151.067 				
					"/>
				<polygon style="fill:#7986F7;" points="407.353,151.067 395.395,174.63 395.395,183.354 390.844,183.006 366.292,188.585 
					366.292,180.082 				"/>
				<polygon style="fill:#989DFD;" points="390.84,211.37 390.84,500 350.89,500 350.89,217.81 353.83,217.34 355.25,217.11 
					361.59,216.08 361.61,216.08 				"/>
				<polygon style="fill:#A5B2FF;" points="452.166,185.708 452.166,214.187 393.924,211.515 393.941,181.346 395.395,181.457 
					446.018,185.25 				"/>
				<polygon style="fill:#A5B2FF;" points="452.165,194.266 452.165,222.744 434.434,221.933 416.321,221.1 393.922,220.069 
					393.946,189.9 395.393,190.015 416.321,191.579 434.434,192.934 446.015,193.802 				"/>
				<polygon style="fill:#989DFD;" points="393.941,181.346 360.928,187.905 360.928,216.083 390.844,211.374 393.924,211.515 				
					"/>
				<g style="opacity:0.7;">
					<polygon style="fill:#BCC5FF;" points="416.321,393.608 416.321,399.275 434.434,400.417 434.434,394.749 					"/>
					<polygon style="fill:#BCC5FF;" points="416.321,421.987 416.321,427.654 434.434,428.795 434.434,423.128 					"/>
					<polygon style="fill:#BCC5FF;" points="416.321,412.527 416.321,418.194 434.434,419.336 434.434,413.668 					"/>
					<polygon style="fill:#BCC5FF;" points="416.321,403.068 416.321,408.735 434.434,409.876 434.434,404.209 					"/>
					<polygon style="fill:#BCC5FF;" points="416.321,384.149 416.321,389.816 434.434,390.957 434.434,385.29 					"/>
					<polygon style="fill:#BCC5FF;" points="416.321,365.229 416.321,370.897 434.434,372.038 434.434,366.371 					"/>
					<polygon style="fill:#BCC5FF;" points="416.321,374.689 416.321,380.356 434.434,381.497 434.434,375.83 					"/>
					<polygon style="fill:#BCC5FF;" points="416.321,450.366 416.321,456.033 434.434,457.174 434.434,451.507 					"/>
					<polygon style="fill:#BCC5FF;" points="416.321,488.204 416.321,493.871 434.434,495.012 434.434,489.345 					"/>
					<polygon style="fill:#BCC5FF;" points="416.321,431.447 416.321,437.114 434.434,438.255 434.434,432.588 					"/>
					<polygon style="fill:#BCC5FF;" points="434.43,498.8 434.43,500 416.32,500 416.32,497.66 431.77,498.63 					"/>
					<polygon style="fill:#BCC5FF;" points="416.321,469.285 416.321,474.952 434.434,476.093 434.434,470.426 					"/>
					<polygon style="fill:#BCC5FF;" points="416.321,478.744 416.321,484.411 434.434,485.553 434.434,479.886 					"/>
					<polygon style="fill:#BCC5FF;" points="416.321,459.825 416.321,465.492 434.434,466.634 434.434,460.966 					"/>
					<polygon style="fill:#BCC5FF;" points="416.321,440.906 416.321,446.573 434.434,447.715 434.434,442.047 					"/>
					<polygon style="fill:#BCC5FF;" points="416.321,355.77 416.321,361.437 434.434,362.578 434.434,356.912 					"/>
					<polygon style="fill:#BCC5FF;" points="416.321,299.013 416.321,304.681 434.434,305.822 434.434,300.155 					"/>
					<polygon style="fill:#BCC5FF;" points="416.321,261.175 416.321,266.842 434.434,267.983 434.434,262.316 					"/>
					<polygon style="fill:#BCC5FF;" points="416.321,242.256 416.321,247.923 434.434,249.064 434.434,243.397 					"/>
					<polygon style="fill:#BCC5FF;" points="416.321,232.796 416.321,238.464 434.434,239.605 434.434,233.938 					"/>
					<polygon style="fill:#BCC5FF;" points="416.321,346.31 416.321,351.978 434.434,353.12 434.434,347.453 					"/>
					<polygon style="fill:#BCC5FF;" points="416.321,223.337 416.321,229.004 434.434,230.145 434.434,224.478 					"/>
					<polygon style="fill:#BCC5FF;" points="434.434,201.766 434.434,192.934 416.321,191.579 416.321,200.625 					"/>
					<polygon style="fill:#BCC5FF;" points="416.321,204.418 416.321,210.084 434.434,211.225 434.434,205.56 					"/>
					<polygon style="fill:#BCC5FF;" points="416.321,213.877 416.321,219.544 434.434,220.686 434.434,215.018 					"/>
					<polygon style="fill:#BCC5FF;" points="416.321,251.715 416.321,257.383 434.434,258.524 434.434,252.857 					"/>
					<polygon style="fill:#BCC5FF;" points="416.321,327.392 416.321,333.058 434.434,334.201 434.434,328.534 					"/>
					<polygon style="fill:#BCC5FF;" points="416.321,317.933 416.321,323.6 434.434,324.741 434.434,319.074 					"/>
					<polygon style="fill:#BCC5FF;" points="416.321,336.851 416.321,342.518 434.434,343.66 434.434,337.993 					"/>
					<polygon style="fill:#BCC5FF;" points="416.321,289.554 416.321,295.221 434.434,296.362 434.434,290.695 					"/>
					<polygon style="fill:#BCC5FF;" points="416.321,308.473 416.321,314.14 434.434,315.281 434.434,309.614 					"/>
					<polygon style="fill:#BCC5FF;" points="416.321,280.094 416.321,285.762 434.434,286.903 434.434,281.236 					"/>
					<polygon style="fill:#BCC5FF;" points="416.321,270.635 416.321,276.302 434.434,277.443 434.434,271.776 					"/>
				</g>
				<g style="opacity:0.7;">
					<polygon style="fill:#BCC5FF;" points="396.899,395.934 396.899,403.797 410.275,404.316 410.275,396.453 					"/>
					<polygon style="fill:#BCC5FF;" points="396.899,489.073 396.899,496.938 410.275,497.457 410.275,489.593 					"/>
					<polygon style="fill:#BCC5FF;" points="396.899,419.219 396.899,427.082 410.275,427.602 410.275,419.738 					"/>
					<polygon style="fill:#BCC5FF;" points="396.899,372.649 396.899,380.513 410.275,381.032 410.275,373.168 					"/>
					<polygon style="fill:#BCC5FF;" points="396.899,384.291 396.899,392.155 410.275,392.674 410.275,384.81 					"/>
					<polygon style="fill:#BCC5FF;" points="396.899,430.861 396.899,438.725 410.275,439.245 410.275,431.381 					"/>
					<polygon style="fill:#BCC5FF;" points="396.899,407.576 396.899,415.44 410.275,415.96 410.275,408.095 					"/>
					<polygon style="fill:#BCC5FF;" points="396.899,477.431 396.899,485.294 410.275,485.814 410.275,477.95 					"/>
					<polygon style="fill:#BCC5FF;" points="396.899,465.788 396.899,473.652 410.275,474.172 410.275,466.308 					"/>
					<polygon style="fill:#BCC5FF;" points="396.899,454.146 396.899,462.009 410.275,462.529 410.275,454.666 					"/>
					<polygon style="fill:#BCC5FF;" points="396.899,361.005 396.899,368.87 410.275,369.389 410.275,361.525 					"/>
					<polygon style="fill:#BCC5FF;" points="396.899,442.503 396.899,450.367 410.275,450.887 410.275,443.023 					"/>
					<polygon style="fill:#BCC5FF;" points="396.899,256.224 396.899,264.088 410.275,264.607 410.275,256.743 					"/>
					<polygon style="fill:#BCC5FF;" points="396.899,244.581 396.899,252.445 410.275,252.964 410.275,245.1 					"/>
					<polygon style="fill:#BCC5FF;" points="396.899,279.509 396.899,287.372 410.275,287.892 410.275,280.028 					"/>
					<polygon style="fill:#BCC5FF;" points="396.899,267.866 396.899,275.73 410.275,276.249 410.275,268.385 					"/>
					<polygon style="fill:#BCC5FF;" points="396.899,349.363 396.899,357.227 410.275,357.747 410.275,349.883 					"/>
					<polygon style="fill:#BCC5FF;" points="396.899,232.938 396.899,240.802 410.275,241.322 410.275,233.458 					"/>
					<polygon style="fill:#BCC5FF;" points="410.275,229.679 410.275,219.976 396.899,219.362 396.899,229.159 					"/>
					<polygon style="fill:#BCC5FF;" points="396.899,337.721 396.899,345.584 410.275,346.104 410.275,338.241 					"/>
					<polygon style="fill:#BCC5FF;" points="396.899,326.078 396.899,333.942 410.275,334.462 410.275,326.598 					"/>
					<polygon style="fill:#BCC5FF;" points="396.899,302.793 396.899,310.657 410.275,311.177 410.275,303.313 					"/>
					<polygon style="fill:#BCC5FF;" points="396.899,314.436 396.899,322.3 410.275,322.819 410.275,314.956 					"/>
					<polygon style="fill:#BCC5FF;" points="396.899,291.151 396.899,299.015 410.275,299.535 410.275,291.671 					"/>
				</g>
				<g style="opacity:0.7;">
					<polygon style="fill:#BCC5FF;" points="440.347,398.25 440.347,406.114 453.723,406.633 453.723,398.769 					"/>
					<polygon style="fill:#BCC5FF;" points="440.347,491.389 440.347,499.254 453.723,499.773 453.723,491.909 					"/>
					<polygon style="fill:#BCC5FF;" points="440.347,421.535 440.347,429.398 453.723,429.918 453.723,422.055 					"/>
					<polygon style="fill:#BCC5FF;" points="440.347,374.965 440.347,382.829 453.723,383.348 453.723,375.484 					"/>
					<polygon style="fill:#BCC5FF;" points="440.347,386.608 440.347,394.471 453.723,394.99 453.723,387.126 					"/>
					<polygon style="fill:#BCC5FF;" points="440.347,433.177 440.347,441.041 453.723,441.561 453.723,433.697 					"/>
					<polygon style="fill:#BCC5FF;" points="440.347,409.892 440.347,417.756 453.723,418.276 453.723,410.411 					"/>
					<polygon style="fill:#BCC5FF;" points="440.347,479.747 440.347,487.611 453.723,488.13 453.723,480.267 					"/>
					<polygon style="fill:#BCC5FF;" points="440.347,468.104 440.347,475.968 453.723,476.488 453.723,468.624 					"/>
					<polygon style="fill:#BCC5FF;" points="440.347,456.462 440.347,464.326 453.723,464.845 453.723,456.982 					"/>
					<polygon style="fill:#BCC5FF;" points="440.347,363.322 440.347,371.186 453.723,371.706 453.723,363.842 					"/>
					<polygon style="fill:#BCC5FF;" points="440.347,444.82 440.347,452.683 453.723,453.203 453.723,445.34 					"/>
					<polygon style="fill:#BCC5FF;" points="440.347,258.54 440.347,266.404 453.723,266.923 453.723,259.059 					"/>
					<polygon style="fill:#BCC5FF;" points="440.347,246.897 440.347,254.761 453.723,255.281 453.723,247.417 					"/>
					<polygon style="fill:#BCC5FF;" points="440.347,281.825 440.347,289.689 453.723,290.209 453.723,282.344 					"/>
					<polygon style="fill:#BCC5FF;" points="440.347,270.182 440.347,278.046 453.723,278.565 453.723,270.702 					"/>
					<polygon style="fill:#BCC5FF;" points="440.347,351.679 440.347,359.543 453.723,360.063 453.723,352.199 					"/>
					<polygon style="fill:#BCC5FF;" points="440.347,235.254 440.347,243.118 453.723,243.638 453.723,235.774 					"/>
					<polygon style="fill:#BCC5FF;" points="453.723,231.996 453.723,222.292 440.347,221.679 440.347,231.476 					"/>
					<polygon style="fill:#BCC5FF;" points="440.347,340.037 440.347,347.901 453.723,348.421 453.723,340.557 					"/>
					<polygon style="fill:#BCC5FF;" points="440.347,328.395 440.347,336.258 453.723,336.778 453.723,328.914 					"/>
					<polygon style="fill:#BCC5FF;" points="440.347,305.11 440.347,312.974 453.723,313.493 453.723,305.63 					"/>
					<polygon style="fill:#BCC5FF;" points="440.347,316.752 440.347,324.616 453.723,325.136 453.723,317.272 					"/>
					<polygon style="fill:#BCC5FF;" points="440.347,293.467 440.347,301.331 453.723,301.851 453.723,293.987 					"/>
				</g>
			</g>
			<g>
				<polygon style="fill:#A5B2FF;" points="653.38,294.79 653.38,500 609.19,500 609.19,292.64 609.53,292.66 640.94,294.19 				"/>
				<polygon style="fill:#A5B2FF;" points="653.39,304.77 653.39,500 609.19,500 609.19,302.62 609.53,302.64 616.61,302.98 
					621.17,303.2 625.55,303.42 627.8,303.53 634.77,303.87 637.02,303.98 640.93,304.17 641.41,304.19 645.97,304.41 
					653.38,304.77 				"/>
				<polygon style="fill:#989DFD;" points="609.19,292.64 609.19,500 558.25,500 558.25,313.97 565,313.51 565,294.79 
					567.48,294.67 571.03,294.5 578.89,294.12 583.37,293.9 588.44,293.65 592.92,293.43 595.93,293.29 596.98,293.24 
					597.99,293.19 602.47,292.97 607.36,292.73 				"/>
				<polygon style="fill:#848FF4;" points="640.937,288.171 640.937,294.186 609.192,292.642 611.395,285.781 608.576,274.691 
					626.823,276.514 				"/>
				<polygon style="fill:#A5B2FF;" points="615.073,288.923 616.045,285.897 614.366,279.295 624.841,280.341 636.429,289.912 
					636.429,289.961 				"/>
				<polygon style="fill:#7986F7;" points="611.395,285.781 609.192,292.642 571.03,294.497 571.03,287.495 586.063,276.246 
					608.576,274.691 				"/>
				<g style="opacity:0.7;">
					<polygon style="fill:#BCC5FF;" points="621.17,313.2 621.17,500 616.61,500 616.61,312.98 					"/>
					<polygon style="fill:#BCC5FF;" points="645.97,314.41 645.97,500 641.41,500 641.41,314.19 					"/>
					<polygon style="fill:#BCC5FF;" points="637.02,301.98 637.02,500 625.55,500 625.55,301.42 					"/>
				</g>
			</g>
			<g>
				<g>
					<polygon style="fill:#A5B2FF;" points="474.383,65.365 474.383,500 516.43,500 516.43,58.132 513.685,58.608 508.571,59.486 
						505.827,59.951 500.712,60.839 497.968,61.304 492.854,62.193 490.109,62.658 484.986,63.546 482.241,64.011 477.127,64.889 
											"/>
					<polygon style="fill:#989DFD;" points="516.43,58.132 516.43,500 543.775,500 543.775,74.046 					"/>
				</g>
				<g>
					<polygon style="fill:#848FF4;" points="474.383,53.938 474.383,65.759 477.127,65.283 482.241,64.406 484.986,63.94 
						490.109,63.052 492.854,62.587 497.968,61.699 500.712,61.234 505.827,60.345 508.571,59.88 513.685,59.002 516.43,58.527 
						516.43,46.705 513.685,47.181 508.571,48.059 505.827,48.524 500.712,49.412 497.968,49.877 492.854,50.766 490.109,51.231 
						484.986,52.119 482.241,52.584 477.127,53.462 					"/>
					<polygon style="fill:#7986F7;" points="516.43,46.705 516.43,58.527 543.775,74.44 543.775,62.619 					"/>
				</g>
				<g>
					<polygon style="fill:#BCC5FF;" points="508.57,72.48 508.57,500 505.83,500 505.83,72.93 					"/>
					<polygon style="fill:#BCC5FF;" points="500.71,73.79 500.71,500 497.97,500 497.97,74.24 					"/>
					<polygon style="fill:#BCC5FF;" points="492.85,75.1 492.85,500 490.11,500 490.11,75.56 					"/>
					<polygon style="fill:#BCC5FF;" points="484.99,76.42 484.99,500 482.24,500 482.24,76.87 					"/>
				</g>
			</g>
			<g>
				<g>
					<path style="fill:#A5B2FF;" d="M320.39,232.38V500h-72.87V238.1l2.14-0.87c0.03-0.01,0.11-0.04,0.22-0.08
						c0.05-0.02,0.11-0.04,0.17-0.07c0.37-0.14,1.01-0.37,1.9-0.66c0.21-0.07,0.43-0.14,0.67-0.21c0.23-0.08,0.47-0.15,0.72-0.23
						c0.22-0.06,0.45-0.13,0.69-0.2c0.2-0.06,0.4-0.12,0.6-0.18c0.22-0.06,0.45-0.13,0.69-0.19c0.22-0.06,0.46-0.13,0.7-0.19
						c1.07-0.29,2.27-0.59,3.6-0.9c0.22-0.05,0.44-0.1,0.66-0.15c1.19-0.26,2.47-0.53,3.84-0.79c1.48-0.28,3.08-0.56,4.78-0.82
						c0.51-0.08,1.04-0.16,1.57-0.23c0.06-0.01,0.13-0.02,0.19-0.03c0.48-0.07,0.96-0.13,1.46-0.19c0.19-0.03,0.38-0.06,0.58-0.08
						c0.44-0.06,0.88-0.11,1.33-0.16c0.01-0.01,0.02-0.01,0.04-0.01c0.49-0.06,0.98-0.11,1.48-0.17c0.78-0.08,1.58-0.16,2.4-0.24
						c4.16-0.39,8.77-0.65,13.79-0.72c0.43-0.01,0.86-0.01,1.29-0.01c0.44-0.01,0.88-0.01,1.32-0.01c1.4,0,2.8,0.02,4.22,0.05
						c0.71,0.01,1.42,0.03,2.14,0.06c0.71,0.02,1.43,0.05,2.14,0.08c0.88,0.04,1.76,0.08,2.65,0.13c0.21,0.01,0.43,0.03,0.65,0.04
						c0.82,0.05,1.64,0.1,2.46,0.16c0.97,0.07,1.93,0.15,2.9,0.23c0.01,0,0.02,0,0.02,0c1.94,0.17,3.88,0.36,5.82,0.58l2.6,0.29
						l0.43,0.05H320.39z"/>
					<path style="fill:#989DFD;" d="M331.07,248.75V500h-10.69V222.35l0.01,0.01l0.95,0.69l1.81,1.32v9.81
						c0,4.37,1.65,8.53,4.53,11.69C328.67,246.96,329.8,247.93,331.07,248.75z"/>
				</g>
				<g>
					<path style="opacity:0.6;fill:#BCC5FF;" d="M264.12,232.38V500h-12.17V234.72C255.13,233.94,259.2,233.09,264.12,232.38z"/>
					<polygon style="opacity:0.6;fill:#BCC5FF;" points="274.07,231.28 274.07,500 270.47,500 270.47,231.59 					"/>
				</g>
				<g>
					<path style="fill:#848FF4;" d="M320.389,222.355v10.025l-3.039-0.343c-7.799-0.882-15.547-1.327-23.003-1.327
						c-28.242,0-44.028,6.258-44.688,6.523l-2.14,0.865v-10.025l2.14-0.865c0.659-0.265,16.445-6.523,44.688-6.523
						c7.457,0,15.204,0.445,23.003,1.327L320.389,222.355z"/>
				</g>
				<g>
					<g>
						<path style="fill:#989DFD;" d="M321.28,274.36l-0.33,3.01l-0.56-0.06h-0.01l-2.53-0.28c-7.91-0.88-15.76-1.32-23.33-1.32
							c-28.56,0-44.4,6.15-45.06,6.41l-1.94,0.77v-3.26l0.82-0.32c0.68-0.27,17.04-6.63,46.18-6.63c7.68,0,15.64,0.45,23.66,1.33
							l2.2,0.25h0.01L321.28,274.36z"/>
					</g>
					<g>
						<path style="fill:#989DFD;" d="M321.28,313.12l-0.33,3.01l-0.56-0.06h-0.01l-2.53-0.28c-7.92-0.87-15.76-1.32-23.33-1.32
							c-28.56,0-44.4,6.16-45.06,6.42l-1.94,0.76v-3.25l0.82-0.33c0.68-0.27,17.04-6.63,46.18-6.63c7.68,0,15.64,0.45,23.66,1.34
							l2.2,0.24h0.01L321.28,313.12z"/>
					</g>
					<g>
						<path style="fill:#989DFD;" d="M321.28,351.88l-0.33,3.02l-0.56-0.06h-0.01l-2.53-0.29c-7.91-0.87-15.76-1.31-23.33-1.31
							c-28.5,0-44.4,6.15-45.06,6.41l-1.94,0.77v-3.26l0.82-0.33c0.69-0.27,17.1-6.63,46.18-6.63c7.68,0,15.64,0.45,23.66,1.34
							l2.2,0.24h0.01L321.28,351.88z"/>
					</g>
					<g>
						<path style="fill:#989DFD;" d="M321.28,390.65l-0.33,3.01l-0.56-0.06h-0.01l-2.53-0.28c-7.91-0.88-15.76-1.32-23.33-1.32
							c-28.56,0-44.4,6.15-45.06,6.42l-1.94,0.76v-3.26l0.82-0.32c0.68-0.27,17.04-6.63,46.18-6.63c7.68,0,15.64,0.45,23.66,1.33
							l2.2,0.25h0.01L321.28,390.65z"/>
					</g>
					<g>
						<path style="fill:#989DFD;" d="M321.28,429.41l-0.33,3.01l-0.56-0.06h-0.01l-2.53-0.28c-7.91-0.87-15.75-1.32-23.33-1.32
							c-28.51,0-44.4,6.16-45.06,6.42l-1.94,0.76v-3.25l0.82-0.33c0.69-0.27,17.1-6.63,46.18-6.63c7.69,0,15.65,0.45,23.66,1.34
							l2.2,0.24h0.01L321.28,429.41z"/>
					</g>
					<g>
						<path style="fill:#989DFD;" d="M321.28,468.17l-0.33,3.02l-0.56-0.06h-0.01l-2.53-0.29c-7.91-0.87-15.76-1.31-23.33-1.31
							c-28.56,0-44.4,6.15-45.06,6.41l-1.94,0.77v-3.26l0.82-0.33c0.68-0.27,17.04-6.63,46.18-6.63c7.68,0,15.64,0.45,23.66,1.34
							l2.2,0.24h0.01L321.28,468.17z"/>
					</g>
				</g>
			</g>
		</g>
	</g>
</g>
</svg>
